# xmcd
#
# Track frame offsets: 
#        150
#        5775
#        24412
#        44750
#        64587
#        83187
#        102012
#        130862
#        140750
#        168712
#        184137
#        196537
#
# Disc length: 2965 seconds
#
# Revision: 4
# Processed by: cddbd v1.5.2PL0 Copyright (c) Steve Scherf et al.
# Submitted via: ExactAudioCopy v0.99pb4
#
DISCID=a30b930c
DTITLE=Аркадий Северный - Концерты Новые
DYEAR=1975
DGENRE=Chanson
TTITLE0=Концерты Новые...
TTITLE1=Старый Мотив
TTITLE2=Памяти Брата
TTITLE3=Всё Идешь И Идешь...
TTITLE4=Годы Мчатся...
TTITLE5=Часто Ночами
TTITLE6=Вьюга
TTITLE7=Ты Мне Не Снилась
TTITLE8=Ночь
TTITLE9=Мне Не Дадут Звезду Героя
TTITLE10=Облака
TTITLE11=Ямщик, Не Гони Лошадей
EXTD=
EXTT0=
EXTT1=
EXTT2=
EXTT3=
EXTT4=
EXTT5=
EXTT6=
EXTT7=
EXTT8=
EXTT9=
EXTT10=
EXTT11=
PLAYORDER=
